<?xml version="1.0" encoding="UTF-8"?>
<!-- Generator: Adobe Illustrator 18.0.0, SVG Export Plug-In . SVG Version: 6.00 Build 0)  -->
<!DOCTYPE svg PUBLIC "-//W3C//DTD SVG 1.0//EN" "http://www.w3.org/TR/2001/REC-SVG-20010904/DTD/svg10.dtd">
<svg version="1.0" id="Layer_1" xmlns="http://www.w3.org/2000/svg" xmlns:xlink="http://www.w3.org/1999/xlink" x="0px" y="0px" viewBox="0 0 18.5799999 17.7800007" enable-background="new 0 0 18.5799999 17.7800007" xml:space="preserve">
<g>
	<path fill="#E7C31F" d="M10.6053467,13.7237606c1.160182-0.5205002,2.2578821-1.3086004,3.0390825-2.2305002   C14.1757288,9.8262606,13.4677286,7.97576,12.9540291,6.64956C12.0585289,4.34096,9.2343464,4.0557604,7.0985293,4.6710601   C6.9403462,4.71596,6.7831292,4.7686601,6.624929,4.82336c-4.6786995,2.5742002-2.8632996,6.2735-1.6318998,8.5860004   C6.4198294,14.7354603,8.8124294,14.52456,10.6053467,13.7237606z M4.5389295,10.1358604   C4.0594292,8.4678602,4.2831292,6.2628603,6.0858293,5.5616603c1.8007998-0.6973,4.8446994-1.8594,6.2188001,2.4296999   c0.5117168,1.3750005,0.8768997,2.8104997-0.3202829,4.2206998c-1.199317,1.4120998-2.9581175,1.8457003-4.3790002,1.5215006   C6.1835294,13.4093599,5.0204291,11.8038607,4.5389295,10.1358604z"/>
	<path fill="#EF4036" d="M6.3358293,2.7647603c0.2002001-0.1230001,0.4032998-0.2422001,0.6083999-0.3545001   c1.662117-0.9052,3.7549-1.4424,5.6171999-1.1416c-3.5810823-2.7793-7.3153996-0.3574-9.7284994,1.2266001   c-1.4414001,0.9473-2.0908,2.3856997-2.21,3.9512C1.3612293,4.5801601,2.9491293,3.0303602,6.3358293,2.7647603z"/>
	<path fill="#8CC63F" d="M10.7469292,3.3858602c0.3975,0.1563001,0.7734995,0.3515999,1.1133003,0.5840001   c1.6786995,1.1445,2.4081993,3.8778999,2.2255993,6.3515997c-0.0165997,0.2324009-0.0448999,0.4668007-0.0819998,0.7011003   c0.4277-0.6152,0.7089996-1.2772999,0.7715168-1.9511003c0.1776829-1.9023995-0.6992168-4.0956998-2.7539167-5.3769999   c-0.1348-0.085-0.2676001-0.1582-0.3994999-0.2265999C11.326129,3.4093602,11.0350294,3.3819602,10.7469292,3.3858602z"/>
	<path fill="#8CC63F" d="M1.9462293,11.8135605c-0.0342001-0.0625-0.0694001-0.125-0.1026001-0.1865005   c-0.8260999-1.5419998-1.3514999-3.4384995-1.2206999-5.1805997c-0.6601,1.6699004-0.6395831,3.5936999-0.6191,5.0760999   c0.041,3.0341997,2.9297001,4.7364006,5.7987995,5.2383003C3.7968292,15.5518599,2.5136292,13.7198601,1.9462293,11.8135605z"/>
	<path fill="#8CC63F" d="M14.7753458,9.0714598c-0.0625172,0.6738005-0.3438168,1.3359003-0.7715168,1.9511003   c-0.2265997,1.4140997-0.8241997,2.8495998-1.8203001,3.7451c2.0527-1.0029001,3.8320007-2.7783003,4.0214996-4.6826   c0.2070007-2.0467997-0.7070999-4.4414001-2.8828993-5.8885999c-0.5830002-0.3887-1.1484003-0.6172001-1.7002001-0.7286   c0.1318998,0.0683999,0.2646999,0.1415999,0.3994999,0.2265999C14.076129,4.97576,14.9530287,7.1690602,14.7753458,9.0714598z"/>
	<path fill="#8CC63F" d="M1.8436292,11.6270599c0.0332,0.0615005,0.0684,0.1240005,0.1026001,0.1865005   c-0.2276001-0.7636003-0.3428-1.5370998-0.3418001-2.2880001c0.004917-2.5596004,2.1328001-5.1553001,4.7314-6.7608004   c-3.3866999,0.2656-4.9745998,1.8153999-5.7129002,3.6817C0.4921293,8.1885605,1.0175294,10.0850601,1.8436292,11.6270599z"/>
	<path fill="#DA3B28" d="M9.8436289,14.6124601c2.3360004-0.7481003,3.4063005-1.8837996,3.8008003-3.1191998   c-0.7812004,0.9218998-1.8789005,1.71-3.0390825,2.2305002c-1.7929173,0.8007994-4.1855173,1.0116997-5.6123176-0.3144007   c0.0283999,0.0527,0.0557003,0.1054001,0.0840001,0.1562004c0.4326,0.8105001,1.0713172,1.3417997,1.8134999,1.6562996   C7.8866291,15.27456,8.8768291,14.9718599,9.8436289,14.6124601z"/>
	<path fill="#85A640" d="M12.9540291,6.64956c0.5136995,1.3262,1.2216997,3.1767006,0.6904001,4.8437004   c0.1289167-0.1522999,0.2489996-0.3094997,0.3593998-0.4707003c0.0370998-0.2342997,0.0654001-0.4686995,0.0819998-0.7011003   c0.1826-2.4736996-0.5468998-5.2070994-2.2255993-6.3515997c-0.3398008-0.2324002-0.7158003-0.4277-1.1133003-0.5840001   c-1.1766996,0.0137-2.29,0.5020001-3.3642001,1.0567c-0.2694998,0.125-0.5215001,0.2519002-0.7578001,0.3807998   C6.7831292,4.7686601,6.9403462,4.71596,7.0985293,4.6710601C9.2343464,4.0557604,12.0585289,4.34096,12.9540291,6.64956z"/>
	<path fill="#85A640" d="M14.003829,11.0225601c-0.1104002,0.1612005-0.2304831,0.3184004-0.3593998,0.4707003   c-0.3944998,1.2354002-1.4647999,2.3710995-3.8008003,3.1191998c-0.9667997,0.3593998-1.9569998,0.6620998-2.9530997,0.6093998   c1.4688172,0.6191006,3.3428168,0.3875999,4.8320003-0.2421999c0.1542997-0.0663996,0.3085995-0.1386995,0.4609995-0.2119999   C13.1796293,13.87216,13.7772293,12.4366598,14.003829,11.0225601z"/>
	<path fill="#00AEEF" d="M15.9930286,3.4229603c-0.8543997-1.2793-2.0819998-1.9355-3.4315996-2.1543002   c0.9404001,0.7285,1.8690996,1.8145,2.7607002,3.3692002c1.5078993,2.3691001,2.7706003,4.9061995,1.1318998,8.0018997   c-1.6396828,3.0957003-4.7118998,4.5840006-7.4736824,4.5254011c-0.4707174-0.0117016-0.9433174-0.0937004-1.4101176-0.2392006   c-0.2382998-0.0049-0.4745998-0.0146999-0.71-0.0323009c-0.3485999-0.0254002-0.7030997-0.0702991-1.0576-0.1327991   c0.1387172,0.0839996,0.2764001,0.1660004,0.4199004,0.2421989c3.0928164,1.6455002,5.5790997,0.392601,7.8915997-1.107399   C21.4305286,11.6280603,18.0292282,6.4737601,15.9930286,3.4229603z"/>
	<path fill="#00AEEF" d="M3.0292292,9.47966C3.0311294,9.4239597,3.0311294,9.37216,3.0331292,9.3155603   c0-0.7265997,0.0273001-1.4531002,0.1533-2.1465001c-0.0186,0.0243998-0.0380831,0.0488-0.0566001,0.0742002   C2.8729293,7.9913602,2.8788292,8.7501602,3.0292292,9.47966z"/>
	<path fill="#007281" d="M3.0292292,9.47966c-0.1503999-0.7294998-0.1562998-1.4882998,0.1006-2.2363997   c-0.3067,0.4218998-0.5302999,0.875-0.6396999,1.3526001c-0.4003999,1.7587996,0.1094,3.9208994,1.7773998,5.4481993   C3.4628294,13.1260605,2.9569292,11.6964598,3.0292292,9.47966z"/>
	<path fill="#007281" d="M6.9442291,2.4102602C6.7391291,2.5225601,6.5360293,2.6417601,6.3358293,2.7647603   c0.5546999-0.0429001,1.1563001-0.0527,1.8115172-0.0234001c2.6835823,0.0019,5.3798828,0.2811999,7.0341825,3.1308002   c1.6542997,2.8496995,1.2774,6.0224996-0.1893997,8.1718998c-1.3575001,1.9903011-4.4561005,2.9375-7.4219003,2.8819008   c0.4668002,0.1455002,0.9394002,0.227499,1.4101176,0.2392006c2.7617826,0.0585995,5.8339996-1.4297009,7.4736824-4.5254011   c1.6387005-3.0957003,0.3759995-5.6327996-1.1318998-8.0018997c-0.8916006-1.5547001-1.8203001-2.6407001-2.7607002-3.3692002   C10.6991291,0.9678602,8.6063461,1.5050602,6.9442291,2.4102602z"/>
	<path fill="#00A651" d="M7.5702291,16.9259605c-2.2138829-0.6865997-4.3144999-2.7608004-5.6239996-5.1124001   c0.5673999,1.9062996,1.8505999,3.7382994,3.8563995,4.9473c0.3545003,0.0625,0.7090001,0.107399,1.0576,0.1327991   C7.0956292,16.9112606,7.3319292,16.9210606,7.5702291,16.9259605z"/>
	<path fill="#00904C" d="M11.6219292,3.4678602c-0.7861004-0.3984001-1.5380001-0.5087001-2.2616997-0.4394   c0.4833994,0.0644,0.9501991,0.1864998,1.3866997,0.3573999C11.0350294,3.3819602,11.326129,3.4093602,11.6219292,3.4678602z"/>
	<path fill="#00AEEF" d="M3.2167292,7.01476c-0.0312998,0.0762-0.0605998,0.1524-0.0869,0.2285004   C3.1483462,7.2178602,3.1678293,7.19346,3.1864293,7.1690602C3.1971292,7.1163602,3.2069292,7.06356,3.2167292,7.01476z"/>
	<path fill="#00A651" d="M14.9921293,14.0440598c1.4667997-2.1493998,1.8436995-5.3221998,0.1893997-8.1718998   c-1.6542997-2.8496003-4.3506002-3.1289003-7.0341825-3.1308002c-0.6552172-0.0293-1.2568173-0.0195-1.8115172,0.0234001   c-2.5985999,1.6055-4.7264829,4.2011995-4.7314,6.7608004c-0.0009999,0.7509003,0.1142,1.5243998,0.3418001,2.2880001   c1.3094999,2.3515997,3.4101167,4.4258003,5.6239996,5.1124001C10.5360289,16.9815598,13.6346292,16.0343609,14.9921293,14.0440598   z M2.4901292,8.5958605c0.1094-0.4776001,0.3329999-0.9307003,0.6396999-1.3526001   C3.1561294,7.16716,3.1854293,7.09096,3.2167292,7.01476c0.2578001-1.25,0.8632998-2.3817997,2.2607002-3.1932998   c1.2774-0.7402999,2.6377001-0.9571002,3.8828001-0.793c0.7236996-0.0693002,1.4755993,0.0409999,2.2616997,0.4394   c0.5517998,0.1113999,1.1171999,0.3399,1.7002001,0.7286c2.1757994,1.4471998,3.0899,3.8418002,2.8828993,5.8885999   c-0.1894989,1.9042997-1.9687996,3.6796999-4.0214996,4.6826c-0.6122999,0.5499001-1.375,0.8956003-2.2919998,0.9091997   c-1.7060995,0.0235004-4.1571827,0.0430002-5.6240001-1.6328001C2.5995293,12.5167599,2.0897293,10.35466,2.4901292,8.5958605z"/>
	<path fill="#00904C" d="M6.624929,4.82336c-1.3700995,0.4805002-2.6562996,1.3125-3.4384997,2.3457003   c-0.1259999,0.6933999-0.1533,1.4199004-0.1533,2.1465001C3.0311294,9.37216,3.0311294,9.4239597,3.0292292,9.47966   c0.2402,1.1640005,0.8457,2.2539005,1.3242002,3.1113005c0.1796999,0.3223,0.3965001,0.5917997,0.6395998,0.8183994   C3.7616293,11.0968599,1.9462293,7.3975601,6.624929,4.82336z"/>
	<path fill="#007281" d="M6.8905292,15.2218599c-0.7421827-0.3144999-1.3808999-0.8457994-1.8134999-1.6562996   C5.0487294,13.51476,5.0214291,13.46206,4.9930291,13.4093599c-0.2430997-0.2265997-0.4598999-0.4960995-0.6395998-0.8183994   c-0.4785001-0.8573999-1.0840001-1.9473-1.3242002-3.1113005c-0.0723,2.2167997,0.4336002,3.6464005,1.2382998,4.5643997   c0.0566001,0.0528002,0.1113,0.1065006,0.1718173,0.1582003C5.253829,14.8936605,6.0741291,15.1768599,6.8905292,15.2218599z"/>
	<path fill="#00904C" d="M6.624929,4.82336c0.2363-0.1288996,0.4883003-0.2557998,0.7578001-0.3807998   c1.0742002-0.5546999,2.1875005-1.043,3.3642001-1.0567c-0.4365005-0.1709001-0.9033003-0.293-1.3866997-0.3573999   c-1.0166006,0.0976-1.9814005,0.5488-2.9150004,1.0516999C4.619029,4.9630604,3.6503463,5.9747601,3.2167292,7.01476   c-0.0098,0.0488-0.0195999,0.1016002-0.0302999,0.1543002C3.9686294,6.13586,5.2548294,5.3038602,6.624929,4.82336z"/>
	<path fill="#00904C" d="M6.4452291,4.0801601C7.378829,3.5772603,8.3436289,3.1260602,9.3602295,3.0284603   c-1.2451-0.1641002-2.6054001,0.0527-3.8828001,0.793C4.080029,4.6329603,3.4745293,5.76476,3.2167292,7.01476   C3.6503463,5.9747601,4.619029,4.9630604,6.4452291,4.0801601z"/>
	<path fill="#00904C" d="M9.8915291,15.6768599c0.9169998-0.0135994,1.6796999-0.3592997,2.2919998-0.9091997   c-0.1524,0.0733004-0.3066998,0.1456003-0.4609995,0.2119999c-1.4891834,0.6297998-3.363183,0.8613005-4.8320003,0.2421999   C6.0741291,15.1768599,5.253829,14.8936605,4.4393463,14.20226c-0.0605173-0.0516996-0.1152172-0.1054001-0.1718173-0.1582003   C5.7343464,15.7198601,8.1854296,15.7003603,9.8915291,15.6768599z"/>
</g>
</svg>