<svg width="96" height="44" viewBox="0 0 96 44" fill="none" xmlns="http://www.w3.org/2000/svg">
<path d="M14.6103 29.4934C14.2071 29.893 14.3747 30.7044 14.9843 31.3063C15.5939 31.9107 16.4123 32.0743 16.813 31.6772C17.2162 31.2774 17.0486 30.4661 16.439 29.8641C15.8318 29.2622 15.011 29.0961 14.6103 29.4934Z" fill="#191A1C"/>
<path d="M19.9622 31.3077C20.5701 30.705 20.737 29.8933 20.3348 29.4946C19.9327 29.096 19.1138 29.2613 18.5058 29.8641C17.898 30.4667 17.7311 31.2785 18.1332 31.6772C18.5354 32.0758 19.3542 31.9104 19.9622 31.3077Z" fill="#191A1C"/>
<path d="M32.8588 18.0494L27.108 6.46875C25.4419 2.81922 21.7529 0.28125 17.4689 0.28125C13.1848 0.28125 9.49579 2.81922 7.82978 6.46875L2.07887 18.0494C0.752863 20.5027 0 23.3118 0 26.2978C0 35.9194 7.82249 43.7173 17.4689 43.7173C27.1177 43.7173 34.9377 35.9169 34.9377 26.2978C34.9377 23.3118 34.1848 20.5027 32.8588 18.0494ZM25.5755 30.2113C25.3132 30.2646 25.1238 30.4922 25.1238 30.7586C25.1238 34.9991 21.7213 38.5155 17.4689 38.547C13.2164 38.5155 9.81393 34.9991 9.81393 30.7586C9.81393 30.4922 9.6245 30.2622 9.36221 30.2113C6.68348 29.6713 4.67746 27.2835 4.73575 24.4404C4.79889 21.3842 7.29063 18.8801 10.3556 18.7977C11.4241 18.7687 12.4295 19.0302 13.2965 19.5049C15.1252 20.4591 16.3031 20.9434 17.4689 20.9579C18.6346 20.9434 19.8125 20.4591 21.6412 19.5049C22.5082 19.0302 23.5161 18.7687 24.5822 18.7977C27.6471 18.8801 30.1388 21.3842 30.202 24.4404C30.2627 27.2859 28.2542 29.6713 25.5755 30.2113Z" fill="#191A1C"/>
<path d="M10.5258 26.1159C11.4634 26.1159 12.2234 25.3624 12.2234 24.433C12.2234 23.5035 11.4634 22.75 10.5258 22.75C9.58819 22.75 8.82812 23.5035 8.82812 24.433C8.82812 25.3624 9.58819 26.1159 10.5258 26.1159Z" fill="#191A1C"/>
<path d="M24.4164 26.1159C25.354 26.1159 26.1141 25.3624 26.1141 24.433C26.1141 23.5035 25.354 22.75 24.4164 22.75C23.4789 22.75 22.7188 23.5035 22.7188 24.433C22.7188 25.3624 23.4789 26.1159 24.4164 26.1159Z" fill="#191A1C"/>
<path d="M19.0464 27.6492C18.585 27.8322 18.041 27.9285 17.4702 27.9285C16.8995 27.9285 16.3555 27.8322 15.894 27.6492C14.7016 27.1749 13.3633 27.5674 12.71 28.581C12.4745 28.9469 12.3555 29.3346 12.3555 29.7342C12.3555 29.9196 12.5084 30.0713 12.6954 30.0713C12.8824 30.0713 13.0355 29.9196 13.0355 29.7342C13.0355 29.4646 13.118 29.1973 13.2832 28.9422C13.7593 28.2005 14.7526 27.9189 15.6414 28.2729C16.1806 28.4871 16.8145 28.6002 17.4702 28.6002C18.1259 28.6002 18.7599 28.4871 19.2991 28.2729C20.1879 27.9189 21.1812 28.2005 21.6573 28.9422C21.8225 29.1973 21.905 29.4646 21.905 29.7342C21.905 29.9196 22.058 30.0713 22.245 30.0713C22.432 30.0713 22.585 29.9196 22.585 29.7342C22.585 29.3346 22.466 28.9469 22.2304 28.581C21.5796 27.5674 20.2389 27.1749 19.0464 27.6492Z" fill="#191A1C"/>
<path d="M55.8252 23.7718H58.8246V30.5156C57.9478 31.2091 56.923 31.7411 55.7523 32.112C54.5816 32.4827 53.3795 32.6681 52.1433 32.6681C50.4043 32.6681 48.8354 32.2925 47.4389 31.5437C46.0399 30.7949 44.9447 29.7596 44.1481 28.4379C43.3515 27.1161 42.9531 25.6257 42.9531 23.9669C42.9531 22.308 43.3515 20.8177 44.1481 19.4959C44.9447 18.174 46.0449 17.1388 47.451 16.39C48.8572 15.6412 50.4383 15.2656 52.1943 15.2656C53.6248 15.2656 54.9241 15.4992 56.0947 15.9663C57.2653 16.4333 58.249 17.1195 59.0456 18.02L57.0468 19.9533C55.745 18.6653 54.1785 18.02 52.3424 18.02C51.1403 18.02 50.0716 18.2704 49.1366 18.7688C48.2016 19.2671 47.4705 19.9702 46.9434 20.8706C46.4141 21.7735 46.1517 22.804 46.1517 23.9645C46.1517 25.0937 46.4165 26.1073 46.9434 27.0101C47.4705 27.913 48.204 28.6208 49.1366 29.1361C50.0716 29.6513 51.1305 29.9089 52.3182 29.9089C53.6515 29.9089 54.8221 29.62 55.83 29.0398V23.7718H55.8252Z" fill="#191A1C"/>
<path d="M65.2827 31.5437C63.8838 30.7949 62.7884 29.7549 61.9918 28.4258C61.1952 27.0968 60.7969 25.6089 60.7969 23.9669C60.7969 22.3225 61.1952 20.837 61.9918 19.5079C62.7884 18.1789 63.8862 17.1388 65.2827 16.39C66.6815 15.6412 68.2481 15.2656 69.987 15.2656C71.726 15.2656 73.2949 15.6412 74.6914 16.39C76.0879 17.1388 77.1856 18.174 77.9822 19.4959C78.7788 20.8177 79.1772 22.308 79.1772 23.9669C79.1772 25.6257 78.7788 27.1161 77.9822 28.4379C77.1856 29.7596 76.0879 30.7949 74.6914 31.5437C73.2925 32.2925 71.726 32.6681 69.987 32.6681C68.2481 32.6657 66.6791 32.2925 65.2827 31.5437ZM73.0593 29.1505C73.9701 28.6425 74.6841 27.9347 75.2038 27.0246C75.7236 26.1144 75.9835 25.096 75.9835 23.9669C75.9835 22.8401 75.7236 21.8192 75.2038 20.9092C74.6841 19.999 73.9677 19.2888 73.0593 18.7832C72.1485 18.2752 71.1237 18.0224 69.987 18.0224C68.848 18.0224 67.8255 18.2752 66.9147 18.7832C66.0039 19.2912 65.29 19.999 64.7702 20.9092C64.2505 21.8192 63.9906 22.8401 63.9906 23.9669C63.9906 25.096 64.2505 26.1144 64.7702 27.0246C65.29 27.9347 66.0064 28.6449 66.9147 29.1505C67.8255 29.6585 68.848 29.9114 69.987 29.9114C71.1261 29.9114 72.1485 29.6585 73.0593 29.1505Z" fill="#191A1C"/>
<path d="M92.5788 32.4224L89.0936 27.4675C88.9479 27.4843 88.7268 27.4916 88.4355 27.4916H84.5835V32.4224H81.4141V15.5039H88.4355C89.9145 15.5039 91.2017 15.7446 92.2994 16.2286C93.3972 16.7125 94.2376 17.4059 94.8228 18.3063C95.4082 19.2092 95.6996 20.2807 95.6996 21.5206C95.6996 22.7942 95.3863 23.8897 94.7621 24.807C94.1355 25.7267 93.2394 26.4105 92.0688 26.8607L95.9934 32.42H92.5788V32.4224ZM91.4324 19.0334C90.716 18.4532 89.6692 18.1643 88.2873 18.1643H84.5811V24.9081H88.2873C89.6692 24.9081 90.716 24.6144 91.4324 24.027C92.1465 23.4395 92.5059 22.604 92.5059 21.5254C92.5059 20.442 92.1465 19.6138 91.4324 19.0334Z" fill="#191A1C"/>
</svg>
